<svg xmlns="http://www.w3.org/2000/svg" xmlns:xlink="http://www.w3.org/1999/xlink" width="500" zoomAndPan="magnify" viewBox="0 0 375 374.999991" height="500" preserveAspectRatio="xMidYMid meet" version="1.0"><defs><g/><clipPath id="31e49eb556"><path d="M 118 140 L 186 140 L 186 209 L 118 209 Z M 118 140 " clip-rule="nonzero"/></clipPath><clipPath id="c95677e844"><path d="M 113.507812 118.628906 L 248.632812 99.320312 L 261.578125 189.898438 L 126.453125 209.207031 Z M 113.507812 118.628906 " clip-rule="nonzero"/></clipPath><clipPath id="6640188722"><path d="M 113.507812 118.628906 L 248.632812 99.320312 L 261.578125 189.898438 L 126.453125 209.207031 Z M 113.507812 118.628906 " clip-rule="nonzero"/></clipPath><clipPath id="3c4e823920"><path d="M 189 100 L 257 100 L 257 169 L 189 169 Z M 189 100 " clip-rule="nonzero"/></clipPath><clipPath id="828ba65bbf"><path d="M 113.507812 118.628906 L 248.632812 99.320312 L 261.578125 189.898438 L 126.453125 209.207031 Z M 113.507812 118.628906 " clip-rule="nonzero"/></clipPath><clipPath id="b558795d3a"><path d="M 113.507812 118.628906 L 248.632812 99.320312 L 261.578125 189.898438 L 126.453125 209.207031 Z M 113.507812 118.628906 " clip-rule="nonzero"/></clipPath></defs><g clip-path="url(#31e49eb556)"><g clip-path="url(#c95677e844)"><g clip-path="url(#6640188722)"><path fill="#0652e9" d="M 169.472656 185.355469 L 170.644531 193.554688 L 130.929688 181.625 L 129.980469 174.972656 L 164.761719 152.402344 L 165.933594 160.601562 L 139.523438 176.925781 L 139.542969 177.082031 Z M 185.582031 140.128906 L 123.292969 149.03125 C 120.351562 149.449219 118.304688 152.167969 118.726562 155.101562 L 125.691406 203.859375 C 126.113281 206.789062 128.835938 208.824219 131.777344 208.40625 L 176.773438 201.976562 L 185.582031 140.128906 " fill-opacity="1" fill-rule="nonzero"/></g></g></g><g clip-path="url(#3c4e823920)"><g clip-path="url(#828ba65bbf)"><g clip-path="url(#b558795d3a)"><path fill="#ff66c4" d="M 245.152344 133.769531 L 210.335938 156.109375 L 209.164062 147.910156 L 236.195312 131.496094 L 236.175781 131.339844 L 205.628906 123.15625 L 204.457031 114.957031 L 244.136719 126.652344 Z M 198.425781 106.519531 L 189.617188 168.367188 L 251.808594 159.480469 C 254.75 159.058594 256.792969 156.34375 256.375 153.410156 L 249.40625 104.652344 C 248.988281 101.722656 246.261719 99.683594 243.324219 100.105469 L 198.425781 106.519531 " fill-opacity="1" fill-rule="nonzero"/></g></g></g><g fill="#ffffff" fill-opacity="1"><g transform="translate(49.090844, 236.134861)"><g><path d="M 19.441406 -20.25 L 13.433594 -7.359375 L 7.457031 -20.25 L 1.855469 -20.25 L 1.855469 0 L 7.019531 0 L 7.019531 -10.902344 L 12.046875 0 L 14.816406 0 L 19.84375 -10.832031 L 19.84375 0 L 25.007812 0 L 25.007812 -20.25 Z M 19.441406 -20.25 "/></g></g></g><g fill="#ffffff" fill-opacity="1"><g transform="translate(77.143907, 236.134861)"><g><path d="M 14.277344 0 L 19.8125 0 L 12.488281 -20.25 L 6.714844 -20.25 L -0.609375 0 L 4.960938 0 L 6.074219 -3.542969 L 13.164062 -3.542969 Z M 7.390625 -7.730469 L 9.617188 -14.882812 L 11.878906 -7.730469 Z M 7.390625 -7.730469 "/></g></g></g><g fill="#ffffff" fill-opacity="1"><g transform="translate(97.569449, 236.134861)"><g><path d="M 14.75 -20.25 L -0.304688 -20.25 L -0.304688 -15.761719 L 4.65625 -15.761719 L 4.65625 0 L 9.789062 0 L 9.789062 -15.761719 L 14.75 -15.761719 Z M 14.75 -20.25 "/></g></g></g><g fill="#ffffff" fill-opacity="1"><g transform="translate(113.20249, 236.134861)"><g><path d="M 14.308594 -20.25 L 14.308594 -12.386719 L 7.019531 -12.386719 L 7.019531 -20.25 L 1.855469 -20.25 L 1.855469 0 L 7.019531 0 L 7.019531 -7.898438 L 14.308594 -7.898438 L 14.308594 0 L 19.472656 0 L 19.472656 -20.25 Z M 14.308594 -20.25 "/></g></g></g><g fill="#ffffff" fill-opacity="1"><g transform="translate(135.754284, 236.134861)"><g><path d="M 14.578125 -15.761719 L 14.578125 -20.25 L 2.023438 -20.25 L 2.023438 0 L 14.578125 0 L 14.578125 -4.488281 L 7.1875 -4.488281 L 7.1875 -7.898438 L 13.433594 -7.898438 L 13.433594 -12.351562 L 7.1875 -12.351562 L 7.1875 -15.761719 Z M 14.578125 -15.761719 "/></g></g></g><g fill="#ffffff" fill-opacity="1"><g transform="translate(152.669823, 236.134861)"><g><path d="M 10.429688 0.269531 C 15.289062 0.269531 19.101562 -2.667969 19.101562 -6.445312 L 19.101562 -20.25 L 13.9375 -20.25 L 13.9375 -7.425781 C 13.9375 -5.636719 12.386719 -4.21875 10.429688 -4.21875 C 8.472656 -4.21875 6.917969 -5.636719 6.917969 -7.425781 L 6.917969 -20.25 L 1.753906 -20.25 L 1.753906 -6.445312 C 1.753906 -2.667969 5.570312 0.269531 10.429688 0.269531 Z M 10.429688 0.269531 "/></g></g></g><g fill="#ffffff" fill-opacity="1"><g transform="translate(174.715365, 236.134861)"><g><path d="M 8.472656 0.269531 C 12.351562 0.269531 15.695312 -1.992188 15.695312 -5.871094 C 15.695312 -13.566406 6.515625 -11.644531 6.515625 -14.714844 C 6.515625 -15.59375 7.1875 -15.996094 8 -15.996094 C 9.011719 -15.996094 10.125 -15.390625 11.203125 -14.242188 L 14.578125 -17.515625 C 12.992188 -19.371094 10.597656 -20.519531 8.066406 -20.519531 C 4.859375 -20.519531 1.316406 -18.664062 1.316406 -14.34375 C 1.316406 -7.324219 10.53125 -9.011719 10.53125 -5.941406 C 10.53125 -5.128906 9.855469 -4.554688 8.539062 -4.554688 C 6.785156 -4.554688 5.367188 -5.5 4.65625 -7.019531 L 0.4375 -4.386719 C 1.789062 -1.824219 4.757812 0.269531 8.472656 0.269531 Z M 8.472656 0.269531 "/></g></g></g><g fill="#ffffff" fill-opacity="1"><g transform="translate(192.339655, 236.134861)"><g/></g></g><g fill="#ffffff" fill-opacity="1"><g transform="translate(201.627679, 236.134861)"><g><path d="M 19.441406 -20.25 L 13.433594 -7.359375 L 7.457031 -20.25 L 1.855469 -20.25 L 1.855469 0 L 7.019531 0 L 7.019531 -10.902344 L 12.046875 0 L 14.816406 0 L 19.84375 -10.832031 L 19.84375 0 L 25.007812 0 L 25.007812 -20.25 Z M 19.441406 -20.25 "/></g></g></g><g fill="#ffffff" fill-opacity="1"><g transform="translate(229.680739, 236.134861)"><g><path d="M 14.578125 -15.761719 L 14.578125 -20.25 L 2.023438 -20.25 L 2.023438 0 L 14.578125 0 L 14.578125 -4.488281 L 7.1875 -4.488281 L 7.1875 -7.898438 L 13.433594 -7.898438 L 13.433594 -12.351562 L 7.1875 -12.351562 L 7.1875 -15.761719 Z M 14.578125 -15.761719 "/></g></g></g><g fill="#ffffff" fill-opacity="1"><g transform="translate(246.596285, 236.134861)"><g><path d="M 16.402344 -20.25 L 16.402344 -7.863281 L 7.257812 -20.25 L 1.855469 -20.25 L 1.855469 0 L 7.019531 0 L 7.019531 -12.421875 L 16.132812 0 L 21.566406 0 L 21.566406 -20.25 Z M 16.402344 -20.25 "/></g></g></g><g fill="#ffffff" fill-opacity="1"><g transform="translate(271.206848, 236.134861)"><g><path d="M 1.855469 0 L 8.875 0 C 14.445312 0 19 -4.523438 19 -10.125 C 19 -15.726562 14.445312 -20.25 8.875 -20.25 L 1.855469 -20.25 Z M 7.019531 -4.488281 L 7.019531 -15.761719 L 8.875 -15.761719 C 11.675781 -15.761719 13.871094 -13.296875 13.871094 -10.125 C 13.871094 -6.953125 11.675781 -4.488281 8.875 -4.488281 Z M 7.019531 -4.488281 "/></g></g></g><g fill="#ffffff" fill-opacity="1"><g transform="translate(292.543646, 236.134861)"><g><path d="M 14.578125 -15.761719 L 14.578125 -20.25 L 2.023438 -20.25 L 2.023438 0 L 14.578125 0 L 14.578125 -4.488281 L 7.1875 -4.488281 L 7.1875 -7.898438 L 13.433594 -7.898438 L 13.433594 -12.351562 L 7.1875 -12.351562 L 7.1875 -15.761719 Z M 14.578125 -15.761719 "/></g></g></g><g fill="#ffffff" fill-opacity="1"><g transform="translate(309.459181, 236.134861)"><g><path d="M 8.472656 0.269531 C 12.351562 0.269531 15.695312 -1.992188 15.695312 -5.871094 C 15.695312 -13.566406 6.515625 -11.644531 6.515625 -14.714844 C 6.515625 -15.59375 7.1875 -15.996094 8 -15.996094 C 9.011719 -15.996094 10.125 -15.390625 11.203125 -14.242188 L 14.578125 -17.515625 C 12.992188 -19.371094 10.597656 -20.519531 8.066406 -20.519531 C 4.859375 -20.519531 1.316406 -18.664062 1.316406 -14.34375 C 1.316406 -7.324219 10.53125 -9.011719 10.53125 -5.941406 C 10.53125 -5.128906 9.855469 -4.554688 8.539062 -4.554688 C 6.785156 -4.554688 5.367188 -5.5 4.65625 -7.019531 L 0.4375 -4.386719 C 1.789062 -1.824219 4.757812 0.269531 8.472656 0.269531 Z M 8.472656 0.269531 "/></g></g></g><g fill="#ffffff" fill-opacity="1"><g transform="translate(111.232475, 263.17888)"><g><path d="M 6.226562 -7.664062 L 6.226562 -9 L 1.066406 -9 L 1.066406 0 L 2.535156 0 L 2.535156 -3.824219 L 5.730469 -3.824219 L 5.730469 -5.175781 L 2.535156 -5.175781 L 2.535156 -7.664062 Z M 6.226562 -7.664062 "/></g></g></g><g fill="#ffffff" fill-opacity="1"><g transform="translate(121.672548, 263.17888)"><g><path d="M 4.5 0.121094 C 6.539062 0.121094 8.070312 -1.183594 8.070312 -2.925781 L 8.070312 -9 L 6.601562 -9 L 6.601562 -3.179688 C 6.601562 -2.070312 5.699219 -1.246094 4.5 -1.246094 C 3.300781 -1.246094 2.414062 -2.070312 2.414062 -3.179688 L 2.414062 -9 L 0.945312 -9 L 0.945312 -2.925781 C 0.945312 -1.183594 2.460938 0.121094 4.5 0.121094 Z M 4.5 0.121094 "/></g></g></g><g fill="#ffffff" fill-opacity="1"><g transform="translate(134.707614, 263.17888)"><g><path d="M 2.460938 -1.363281 L 2.460938 -9 L 0.988281 -9 L 0.988281 0 L 5.625 0 L 5.625 -1.363281 Z M 2.460938 -1.363281 "/></g></g></g><g fill="#ffffff" fill-opacity="1"><g transform="translate(144.427681, 263.17888)"><g><path d="M 2.460938 -1.363281 L 2.460938 -9 L 0.988281 -9 L 0.988281 0 L 5.625 0 L 5.625 -1.363281 Z M 2.460938 -1.363281 "/></g></g></g><g fill="#ffffff" fill-opacity="1"><g transform="translate(154.147748, 263.17888)"><g/></g></g><g fill="#ffffff" fill-opacity="1"><g transform="translate(161.767825, 263.17888)"><g><path d="M 3.496094 0.121094 C 5.113281 0.121094 6.433594 -0.839844 6.433594 -2.460938 C 6.433594 -5.65625 2.175781 -4.875 2.175781 -6.71875 C 2.175781 -7.425781 2.730469 -7.753906 3.390625 -7.753906 C 3.988281 -7.753906 4.53125 -7.484375 4.933594 -6.976562 L 5.96875 -7.921875 C 5.398438 -8.625 4.453125 -9.121094 3.390625 -9.121094 C 1.980469 -9.121094 0.703125 -8.234375 0.703125 -6.613281 C 0.703125 -3.628906 4.964844 -4.363281 4.964844 -2.460938 C 4.964844 -1.726562 4.351562 -1.289062 3.511719 -1.289062 C 2.59375 -1.289062 1.90625 -1.800781 1.589844 -2.566406 L 0.328125 -1.800781 C 0.855469 -0.675781 2.054688 0.121094 3.496094 0.121094 Z M 3.496094 0.121094 "/></g></g></g><g fill="#ffffff" fill-opacity="1"><g transform="translate(172.597889, 263.17888)"><g><path d="M 6.253906 -9 L 0.03125 -9 L 0.03125 -7.636719 L 2.414062 -7.636719 L 2.414062 0 L 3.871094 0 L 3.871094 -7.636719 L 6.253906 -7.636719 Z M 6.253906 -9 "/></g></g></g><g fill="#ffffff" fill-opacity="1"><g transform="translate(182.902955, 263.17888)"><g><path d="M 6.449219 0 L 8.039062 0 L 4.785156 -9 L 3.148438 -9 L -0.105469 0 L 1.484375 0 L 2.128906 -1.90625 L 5.804688 -1.90625 Z M 2.566406 -3.195312 L 3.976562 -7.394531 L 5.386719 -3.195312 Z M 2.566406 -3.195312 "/></g></g></g><g fill="#ffffff" fill-opacity="1"><g transform="translate(194.858019, 263.17888)"><g><path d="M 5.265625 0.121094 C 7.019531 0.121094 8.535156 -0.855469 9.316406 -2.296875 L 8.054688 -2.96875 C 7.53125 -1.980469 6.480469 -1.335938 5.265625 -1.335938 C 3.496094 -1.335938 2.101562 -2.714844 2.101562 -4.5 C 2.101562 -6.285156 3.496094 -7.664062 5.265625 -7.664062 C 6.480469 -7.664062 7.53125 -7.019531 8.054688 -6.03125 L 9.316406 -6.703125 C 8.535156 -8.144531 7.019531 -9.121094 5.265625 -9.121094 C 2.714844 -9.121094 0.644531 -7.050781 0.644531 -4.5 C 0.644531 -1.949219 2.714844 0.121094 5.265625 0.121094 Z M 5.265625 0.121094 "/></g></g></g><g fill="#ffffff" fill-opacity="1"><g transform="translate(208.628076, 263.17888)"><g><path d="M 6.480469 0 L 8.476562 0 L 4.183594 -4.921875 L 8.175781 -9 L 6.238281 -9 L 2.96875 -5.566406 L 2.460938 -5.566406 L 2.460938 -9 L 0.988281 -9 L 0.988281 0 L 2.460938 0 L 2.460938 -4.246094 L 2.941406 -4.246094 Z M 6.480469 0 "/></g></g></g><g fill="#ffffff" fill-opacity="1"><g transform="translate(220.913148, 263.17888)"><g/></g></g><g fill="#ffffff" fill-opacity="1"><g transform="translate(228.533219, 263.17888)"><g><path d="M 10.828125 -9 L 8.863281 -2.191406 L 6.929688 -9 L 5.265625 -9 L 3.34375 -2.21875 L 1.394531 -9 L -0.164062 -9 L 2.488281 0 L 4.125 0 L 6.089844 -7.199219 L 8.085938 0 L 9.734375 0 L 12.359375 -9 Z M 10.828125 -9 "/></g></g></g><g fill="#ffffff" fill-opacity="1"><g transform="translate(244.748283, 263.17888)"><g><path d="M 6.226562 -7.664062 L 6.226562 -9 L 1.066406 -9 L 1.066406 0 L 6.226562 0 L 6.226562 -1.335938 L 2.535156 -1.335938 L 2.535156 -3.824219 L 5.730469 -3.824219 L 5.730469 -5.175781 L 2.535156 -5.175781 L 2.535156 -7.664062 Z M 6.226562 -7.664062 "/></g></g></g><g fill="#ffffff" fill-opacity="1"><g transform="translate(255.758345, 263.17888)"><g><path d="M 5.925781 -4.558594 C 6.660156 -4.921875 7.125 -5.59375 7.125 -6.554688 C 7.125 -8.039062 5.96875 -9 4.53125 -9 L 0.988281 -9 L 0.988281 0 L 4.859375 0 C 6.285156 0 7.425781 -0.929688 7.425781 -2.414062 C 7.425781 -3.511719 6.808594 -4.230469 5.925781 -4.558594 Z M 5.65625 -6.40625 C 5.65625 -5.699219 5.070312 -5.144531 4.363281 -5.144531 L 2.445312 -5.144531 L 2.445312 -7.636719 L 4.363281 -7.636719 C 5.070312 -7.636719 5.65625 -7.125 5.65625 -6.40625 Z M 4.648438 -1.363281 L 2.445312 -1.363281 L 2.445312 -3.855469 L 4.648438 -3.855469 C 5.371094 -3.855469 5.953125 -3.300781 5.953125 -2.59375 C 5.953125 -1.890625 5.371094 -1.363281 4.648438 -1.363281 Z M 4.648438 -1.363281 "/></g></g></g><g fill="#ffffff" fill-opacity="1"><g transform="translate(136.919974, 280.428879)"><g><path d="M 0.988281 0 L 3.691406 0 C 6.179688 0 8.191406 -2.011719 8.191406 -4.5 C 8.191406 -6.988281 6.179688 -9 3.691406 -9 L 0.988281 -9 Z M 2.445312 -1.363281 L 2.445312 -7.636719 L 3.691406 -7.636719 C 5.398438 -7.636719 6.734375 -6.300781 6.734375 -4.5 C 6.734375 -2.699219 5.398438 -1.363281 3.691406 -1.363281 Z M 2.445312 -1.363281 "/></g></g></g><g fill="#ffffff" fill-opacity="1"><g transform="translate(149.775035, 280.428879)"><g><path d="M 6.226562 -7.664062 L 6.226562 -9 L 1.066406 -9 L 1.066406 0 L 6.226562 0 L 6.226562 -1.335938 L 2.535156 -1.335938 L 2.535156 -3.824219 L 5.730469 -3.824219 L 5.730469 -5.175781 L 2.535156 -5.175781 L 2.535156 -7.664062 Z M 6.226562 -7.664062 "/></g></g></g><g fill="#ffffff" fill-opacity="1"><g transform="translate(160.785103, 280.428879)"><g><path d="M 6.40625 -9 L 3.976562 -1.859375 L 1.53125 -9 L -0.105469 -9 L 3.148438 0 L 4.785156 0 L 8.039062 -9 Z M 6.40625 -9 "/></g></g></g><g fill="#ffffff" fill-opacity="1"><g transform="translate(172.740167, 280.428879)"><g><path d="M 6.226562 -7.664062 L 6.226562 -9 L 1.066406 -9 L 1.066406 0 L 6.226562 0 L 6.226562 -1.335938 L 2.535156 -1.335938 L 2.535156 -3.824219 L 5.730469 -3.824219 L 5.730469 -5.175781 L 2.535156 -5.175781 L 2.535156 -7.664062 Z M 6.226562 -7.664062 "/></g></g></g><g fill="#ffffff" fill-opacity="1"><g transform="translate(183.750236, 280.428879)"><g><path d="M 2.460938 -1.363281 L 2.460938 -9 L 0.988281 -9 L 0.988281 0 L 5.625 0 L 5.625 -1.363281 Z M 2.460938 -1.363281 "/></g></g></g><g fill="#ffffff" fill-opacity="1"><g transform="translate(193.470303, 280.428879)"><g><path d="M 5.265625 0.121094 C 7.816406 0.121094 9.886719 -1.949219 9.886719 -4.5 C 9.886719 -7.050781 7.816406 -9.121094 5.265625 -9.121094 C 2.714844 -9.121094 0.644531 -7.050781 0.644531 -4.5 C 0.644531 -1.949219 2.714844 0.121094 5.265625 0.121094 Z M 5.265625 -1.335938 C 3.496094 -1.335938 2.101562 -2.714844 2.101562 -4.5 C 2.101562 -6.285156 3.496094 -7.664062 5.265625 -7.664062 C 7.050781 -7.664062 8.429688 -6.285156 8.429688 -4.5 C 8.429688 -2.714844 7.050781 -1.335938 5.265625 -1.335938 Z M 5.265625 -1.335938 "/></g></g></g><g fill="#ffffff" fill-opacity="1"><g transform="translate(208.020372, 280.428879)"><g><path d="M 4.515625 -9 L 0.988281 -9 L 0.988281 0 L 2.460938 0 L 2.460938 -3.824219 L 4.515625 -3.824219 C 5.96875 -3.824219 7.109375 -4.933594 7.109375 -6.390625 C 7.109375 -7.828125 5.96875 -9 4.515625 -9 Z M 4.304688 -5.101562 L 2.460938 -5.101562 L 2.460938 -7.664062 L 4.304688 -7.664062 C 5.085938 -7.664062 5.671875 -7.15625 5.671875 -6.375 C 5.671875 -5.578125 5.085938 -5.101562 4.304688 -5.101562 Z M 4.304688 -5.101562 "/></g></g></g><g fill="#ffffff" fill-opacity="1"><g transform="translate(219.30044, 280.428879)"><g><path d="M 6.226562 -7.664062 L 6.226562 -9 L 1.066406 -9 L 1.066406 0 L 6.226562 0 L 6.226562 -1.335938 L 2.535156 -1.335938 L 2.535156 -3.824219 L 5.730469 -3.824219 L 5.730469 -5.175781 L 2.535156 -5.175781 L 2.535156 -7.664062 Z M 6.226562 -7.664062 "/></g></g></g><g fill="#ffffff" fill-opacity="1"><g transform="translate(230.310509, 280.428879)"><g><path d="M 5.160156 -3.914062 C 6.285156 -4.15625 7.109375 -5.144531 7.109375 -6.359375 C 7.109375 -7.828125 5.96875 -9 4.515625 -9 L 0.988281 -9 L 0.988281 0 L 2.460938 0 L 2.460938 -3.78125 L 3.703125 -3.78125 L 6.089844 0 L 7.738281 0 Z M 2.460938 -5.054688 L 2.460938 -7.636719 L 4.335938 -7.636719 C 5.101562 -7.636719 5.671875 -7.109375 5.671875 -6.34375 C 5.671875 -5.578125 5.101562 -5.054688 4.335938 -5.054688 Z M 2.460938 -5.054688 "/></g></g></g><g fill="#ffffff" fill-opacity="1"><g transform="translate(189.502002, 297.678878)"><g/></g></g></svg>